<svg xmlns="http://www.w3.org/2000/svg" xmlns:cc="http://web.resource.org/cc/" xmlns:svg="http://www.w3.org/2000/svg" xmlns:xlink="http://www.w3.org/1999/xlink" id="svg2" width="48" height="48" version="1.0"><defs id="defs4"><linearGradient id="linearGradient6156"><stop style="stop-color:#000;stop-opacity:1" id="stop6158" offset="0"/><stop style="stop-color:#000;stop-opacity:0" id="stop6160" offset="1"/></linearGradient><linearGradient id="linearGradient6339"><stop style="stop-color:#c00;stop-opacity:1" id="stop6341" offset="0"/><stop style="stop-color:#c00;stop-opacity:0" id="stop6343" offset="1"/></linearGradient><linearGradient id="linearGradient6305"><stop id="stop6307" offset="0" style="stop-color:#c00;stop-opacity:0"/><stop id="stop6309" offset="1" style="stop-color:#c00;stop-opacity:.61176473"/></linearGradient><linearGradient id="linearGradient1311"><stop style="stop-color:#fff;stop-opacity:1" id="stop1313" offset="0"/><stop style="stop-color:#fff;stop-opacity:0" id="stop1315" offset="1"/></linearGradient><linearGradient id="linearGradient5100" x1="27.943" x2="27.943" y1="1.5" y2="25.5" gradientUnits="userSpaceOnUse" xlink:href="#linearGradient1311"/><linearGradient id="linearGradient5121" x1="274.33" x2="279.77" y1="394.748" y2="394.748" gradientTransform="matrix(0.8271607,0,0,0.4916824,67.476312,197.10085)" gradientUnits="userSpaceOnUse" xlink:href="#linearGradient6305"/><linearGradient id="linearGradient5125" x1="278.509" x2="273.509" y1="391.676" y2="391.739" gradientTransform="matrix(-0.7618383,0,0,0.6527934,502.60091,134.89766)" gradientUnits="userSpaceOnUse" xlink:href="#linearGradient1311"/><linearGradient id="linearGradient5128" x1="273.453" x2="278.893" y1="397.579" y2="397.579" gradientTransform="matrix(0.8271607,0,0,0.4916824,68.20175,195.70886)" gradientUnits="userSpaceOnUse" xlink:href="#linearGradient6305"/><linearGradient id="linearGradient5131" x1="278.509" x2="273.509" y1="391.676" y2="391.739" gradientTransform="matrix(-0.7618383,0,0,0.6527934,502.60091,133.50572)" gradientUnits="userSpaceOnUse" xlink:href="#linearGradient1311"/><linearGradient id="linearGradient5134" x1="278.509" x2="273.509" y1="391.676" y2="391.739" gradientTransform="matrix(-0.7618383,0,0,0.6527934,502.60091,133.41933)" gradientUnits="userSpaceOnUse" xlink:href="#linearGradient1311"/><linearGradient id="linearGradient5137" x1="278.509" x2="273.509" y1="391.676" y2="391.739" gradientTransform="matrix(-0.7618383,0,0,0.6527934,502.60091,133.33292)" gradientUnits="userSpaceOnUse" xlink:href="#linearGradient1311"/><linearGradient id="linearGradient5140" x1="273.453" x2="278.893" y1="397.208" y2="397.208" gradientTransform="matrix(0.8271607,0,0,0.4916824,68.201735,195.89128)" gradientUnits="userSpaceOnUse" xlink:href="#linearGradient6305"/><linearGradient id="linearGradient5143" x1="273.453" x2="278.893" y1="397.18" y2="397.18" gradientTransform="matrix(0.8271607,0,0,0.4916824,68.201735,195.90514)" gradientUnits="userSpaceOnUse" xlink:href="#linearGradient6305"/><linearGradient id="linearGradient5146" x1="273.453" x2="278.893" y1="396.87" y2="396.87" gradientTransform="matrix(0.8271607,0,0,0.4916824,68.201764,196.05741)" gradientUnits="userSpaceOnUse" xlink:href="#linearGradient6305"/><linearGradient id="linearGradient5150" x1="28.032" x2="28.032" y1="3.826" y2="29.141" gradientTransform="matrix(0.8923776,0,0,0.9986827,270.78512,364.22471)" gradientUnits="userSpaceOnUse" xlink:href="#linearGradient1311"/><linearGradient id="linearGradient5153" x1="262.544" x2="256.317" y1="363.743" y2="368.261" gradientTransform="matrix(1.4184829,0,0,1.4000056,-75.308126,-131.49921)" gradientUnits="userSpaceOnUse" xlink:href="#linearGradient6339"/><radialGradient id="radialGradient6162" cx="13.992" cy="29.03" r="6.923" fx="13.992" fy="29.03" gradientTransform="matrix(1,0,0,0.2960725,0,20.435073)" gradientUnits="userSpaceOnUse" xlink:href="#linearGradient6156"/><filter id="filter6184" width="1.06" height="1.204" x="-.03" y="-.102"><feGaussianBlur id="feGaussianBlur6186" stdDeviation=".174"/></filter><radialGradient id="radialGradient6224" cx="13.992" cy="29.03" r="6.923" fx="13.992" fy="29.03" gradientTransform="matrix(1,0,0,0.2960725,0,20.435073)" gradientUnits="userSpaceOnUse" xlink:href="#linearGradient6156"/><linearGradient id="linearGradient6226" x1="262.544" x2="256.317" y1="363.743" y2="368.261" gradientTransform="matrix(1.4184829,0,0,1.4000056,-75.308126,-131.49921)" gradientUnits="userSpaceOnUse" xlink:href="#linearGradient6339"/><linearGradient id="linearGradient6228" x1="28.032" x2="28.032" y1="3.826" y2="29.141" gradientTransform="matrix(0.8923776,0,0,0.9986827,270.78512,364.22471)" gradientUnits="userSpaceOnUse" xlink:href="#linearGradient1311"/><linearGradient id="linearGradient6230" x1="27.943" x2="27.943" y1="1.5" y2="25.5" gradientUnits="userSpaceOnUse" xlink:href="#linearGradient1311"/><linearGradient id="linearGradient6232" x1="273.453" x2="278.893" y1="396.87" y2="396.87" gradientTransform="matrix(0.8271607,0,0,0.4916824,68.201764,196.05741)" gradientUnits="userSpaceOnUse" xlink:href="#linearGradient6305"/><linearGradient id="linearGradient6234" x1="273.453" x2="278.893" y1="397.18" y2="397.18" gradientTransform="matrix(0.8271607,0,0,0.4916824,68.201735,195.90514)" gradientUnits="userSpaceOnUse" xlink:href="#linearGradient6305"/><linearGradient id="linearGradient6236" x1="273.453" x2="278.893" y1="397.208" y2="397.208" gradientTransform="matrix(0.8271607,0,0,0.4916824,68.201735,195.89128)" gradientUnits="userSpaceOnUse" xlink:href="#linearGradient6305"/><linearGradient id="linearGradient6238" x1="278.509" x2="273.509" y1="391.676" y2="391.739" gradientTransform="matrix(-0.7618383,0,0,0.6527934,502.60091,133.33292)" gradientUnits="userSpaceOnUse" xlink:href="#linearGradient1311"/><linearGradient id="linearGradient6240" x1="278.509" x2="273.509" y1="391.676" y2="391.739" gradientTransform="matrix(-0.7618383,0,0,0.6527934,502.60091,133.41933)" gradientUnits="userSpaceOnUse" xlink:href="#linearGradient1311"/><linearGradient id="linearGradient6242" x1="278.509" x2="273.509" y1="391.676" y2="391.739" gradientTransform="matrix(-0.7618383,0,0,0.6527934,502.60091,133.50572)" gradientUnits="userSpaceOnUse" xlink:href="#linearGradient1311"/><linearGradient id="linearGradient6244" x1="273.453" x2="278.893" y1="397.579" y2="397.579" gradientTransform="matrix(0.8271607,0,0,0.4916824,68.20175,195.70886)" gradientUnits="userSpaceOnUse" xlink:href="#linearGradient6305"/><linearGradient id="linearGradient6246" x1="278.509" x2="273.509" y1="391.676" y2="391.739" gradientTransform="matrix(-0.7618383,0,0,0.6527934,502.60091,134.89766)" gradientUnits="userSpaceOnUse" xlink:href="#linearGradient1311"/><linearGradient id="linearGradient6248" x1="274.33" x2="279.77" y1="394.748" y2="394.748" gradientTransform="matrix(0.8271607,0,0,0.4916824,67.476312,197.10085)" gradientUnits="userSpaceOnUse" xlink:href="#linearGradient6305"/><linearGradient id="linearGradient6251" x1="274.33" x2="279.77" y1="394.748" y2="394.748" gradientTransform="matrix(1.2619512,0,0,0.7413853,-43.834448,110.10038)" gradientUnits="userSpaceOnUse" xlink:href="#linearGradient6305"/><linearGradient id="linearGradient6255" x1="278.509" x2="273.509" y1="391.676" y2="391.739" gradientTransform="matrix(-1.1622926,0,0,0.9843171,618.12748,16.198336)" gradientUnits="userSpaceOnUse" xlink:href="#linearGradient1311"/><linearGradient id="linearGradient6258" x1="273.453" x2="278.893" y1="397.579" y2="397.579" gradientTransform="matrix(1.2619512,0,0,0.7413853,-42.834449,108.10035)" gradientUnits="userSpaceOnUse" xlink:href="#linearGradient6305"/><linearGradient id="linearGradient6261" x1="278.509" x2="273.509" y1="391.676" y2="391.739" gradientTransform="matrix(-1.1622926,0,0,0.9843171,618.12748,14.198414)" gradientUnits="userSpaceOnUse" xlink:href="#linearGradient1311"/><linearGradient id="linearGradient6264" x1="278.509" x2="273.509" y1="391.676" y2="391.739" gradientTransform="matrix(-1.1622926,0,0,0.9843171,618.12748,14.16705)" gradientUnits="userSpaceOnUse" xlink:href="#linearGradient1311"/><linearGradient id="linearGradient6267" x1="278.509" x2="273.509" y1="391.676" y2="391.739" gradientTransform="matrix(-1.1622926,0,0,0.9843171,618.12748,14.135677)" gradientUnits="userSpaceOnUse" xlink:href="#linearGradient1311"/><linearGradient id="linearGradient6270" x1="273.453" x2="278.893" y1="397.208" y2="397.208" gradientTransform="matrix(1.2619512,0,0,0.7413853,-42.834472,108.47434)" gradientUnits="userSpaceOnUse" xlink:href="#linearGradient6305"/><linearGradient id="linearGradient6273" x1="273.453" x2="278.893" y1="397.18" y2="397.18" gradientTransform="matrix(1.2619512,0,0,0.7413853,-42.834472,108.59416)" gradientUnits="userSpaceOnUse" xlink:href="#linearGradient6305"/><linearGradient id="linearGradient6276" x1="273.453" x2="278.893" y1="396.87" y2="396.87" gradientTransform="matrix(1.2619512,0,0,0.7413853,-42.834428,108.92266)" gradientUnits="userSpaceOnUse" xlink:href="#linearGradient6305"/><linearGradient id="linearGradient6280" x1="28.032" x2="28.032" y1="3.826" y2="29.141" gradientTransform="matrix(1.4173051,0,0,1.5768665,263.83554,361.89844)" gradientUnits="userSpaceOnUse" xlink:href="#linearGradient1311"/><linearGradient id="linearGradient6283" x1="262.544" x2="256.317" y1="363.743" y2="368.261" gradientTransform="matrix(2.1640972,0,0,2.1331674,-262.6967,-392.68034)" gradientUnits="userSpaceOnUse" xlink:href="#linearGradient6339"/><linearGradient id="linearGradient6288" x1="27.943" x2="27.943" y1="1.5" y2="25.5" gradientUnits="userSpaceOnUse" xlink:href="#linearGradient1311"/><radialGradient id="radialGradient6290" cx="13.992" cy="29.03" r="6.923" fx="13.992" fy="29.03" gradientTransform="matrix(1,0,0,0.2960725,0,20.435073)" gradientUnits="userSpaceOnUse" xlink:href="#linearGradient6156"/><linearGradient id="linearGradient6294" x1="278.509" x2="273.509" y1="391.676" y2="391.739" gradientTransform="matrix(-1.1622926,0,0,0.9843171,619.12748,18.19834)" gradientUnits="userSpaceOnUse" xlink:href="#linearGradient1311"/></defs><metadata id="metadata7"/><g id="layer5" transform="translate(-278.49946,-366.7429)" style="display:inline"><path style="opacity:.2;fill:url(#radialGradient6290);fill-opacity:1;stroke:none;stroke-width:16.60000038;stroke-linecap:round;stroke-linejoin:round;stroke-miterlimit:4;stroke-dasharray:none;stroke-opacity:1;filter:url(#filter6184)" id="path5161" d="M 20.914906 29.030083 A 6.9228339 2.0496609 0 1 1 7.0692382,29.030083 A 6.9228339 2.0496609 0 1 1 20.914906 29.030083 z" transform="matrix(1.3000458,0,0,1.4636583,283.30913,369.25278)"/><path style="fill:#555753;fill-rule:evenodd;stroke:#2f312e;stroke-width:1.00000036px;stroke-linecap:butt;stroke-linejoin:miter;stroke-opacity:1" id="path5592" d="M 296.11675,408.3226 C 297.0139,407.8359 305.98507,407.8359 306.88215,408.3226 C 307.7793,408.80934 303.29371,411.24291 301.49948,411.24291 C 299.70529,411.24291 295.21967,408.80934 296.11675,408.3226 z"/><path style="fill:#edd400;fill-opacity:1;fill-rule:nonzero;stroke:#c4a000;stroke-width:1;stroke-linecap:round;stroke-linejoin:round;stroke-miterlimit:4;stroke-dasharray:none;stroke-opacity:1;display:inline" id="path5590" d="M 294.55231,397.1754 C 293.58927,397.59612 292.99947,398.09958 292.99947,398.65147 C 292.99947,399.024 294.45661,399.3503 294.92021,399.67061 C 294.45661,399.99097 292.99947,400.3524 292.99947,400.72498 C 292.99947,401.09749 294.45661,401.42381 294.92021,401.74412 C 294.45661,402.06445 292.99947,402.42593 292.99947,402.79846 C 292.99947,403.17099 294.45661,403.53243 294.92021,403.85278 C 294.45661,404.17311 292.99947,404.49942 292.99947,404.87198 C 292.99947,405.3804 294.70453,405.87718 295.53321,406.27775 C 295.36596,406.49377 294.31722,406.50981 294.31722,406.74421 C 294.31722,408.17684 297.39386,408.88494 301.49946,408.88494 C 305.60498,408.88494 308.79106,408.17684 308.79106,406.74421 C 308.79106,406.50981 307.73306,406.49377 307.56586,406.27775 C 308.39448,405.87718 309.99948,405.3804 309.99948,404.87198 C 309.99948,404.49942 308.60152,404.17311 308.13795,403.85278 C 308.60152,403.53243 309.99948,403.17099 309.99948,402.79846 C 309.99948,402.42593 308.60152,402.06445 308.13795,401.74412 C 308.60152,401.42381 309.99948,401.09749 309.99948,400.72498 C 309.99948,400.3524 308.60152,399.99097 308.13795,399.67061 C 308.60152,399.3503 309.99948,399.024 309.99948,398.65147 C 309.99948,398.10561 309.4314,397.59351 308.48744,397.1754 C 306.69453,398.16654 304.04176,398.49379 301.58831,398.55875 C 299.15979,398.62304 296.91696,398.33866 294.55231,397.1754 z"/><path style="fill:none;fill-opacity:1;fill-rule:nonzero;stroke:url(#linearGradient6283);stroke-width:1;stroke-linecap:round;stroke-linejoin:round;stroke-miterlimit:4;stroke-opacity:1" id="path4659" d="M 315.99092,380.18994 C 315.99092,387.67268 310.43033,391.38117 307.59632,396.93814 C 306.63787,398.81727 303.69021,399.2429 301.44323,399.2429 C 299.18267,399.2429 296.34335,398.83222 295.38594,396.93814 C 292.58466,391.39636 287.00372,388.41334 287.00372,380.18994 C 287.00372,371.96654 293.82138,367.24551 301.49763,367.24551 C 309.16091,367.24551 315.99092,372.70717 315.99092,380.18994 z"/><path style="fill:none;fill-opacity:1;fill-rule:nonzero;stroke:url(#linearGradient6280);stroke-width:1.00000095;stroke-linecap:round;stroke-linejoin:round;stroke-miterlimit:4;stroke-opacity:1;display:inline" id="path5564" d="M 288.07066,381.20002 C 288.3095,388.08935 295.41504,392.41305 296.77687,397.23419 C 299.93024,398.67946 303.14035,398.5193 306.18423,397.08848 C 309.47478,390.95505 314.30064,387.09849 314.98118,381.05927 C 315.41813,373.11194 307.93381,368.24291 301.93649,368.24291 C 293.56935,368.24291 287.25346,373.68738 288.07066,381.20002 z"/><path style="fill:url(#linearGradient6288);fill-opacity:1;fill-rule:nonzero;stroke:none;stroke-width:2.3233397;stroke-linecap:round;stroke-linejoin:round;stroke-miterlimit:4;stroke-dasharray:none;stroke-opacity:1;display:inline" id="path5556" d="M 38 13.5 A 11.5 11.5 0 1 1 15,13.5 A 11.5 11.5 0 1 1 38 13.5 z" transform="matrix(0.7826087,0,0,0.3913042,280.76033,368.96029)"/><path style="fill:none;fill-opacity:1;fill-rule:evenodd;stroke:url(#linearGradient6276);stroke-width:1.00000072px;stroke-linecap:round;stroke-linejoin:miter;stroke-opacity:1" id="path6619" d="M 302.95166,398.98428 C 306.73753,398.98428 307.99946,398.2429 307.99946,398.2429"/><path style="color:#000;fill:none;fill-opacity:1;fill-rule:evenodd;stroke:url(#linearGradient6273);stroke-width:1.00000072px;stroke-linecap:round;stroke-linejoin:miter;marker:none;marker-start:none;marker-mid:none;marker-end:none;stroke-miterlimit:4;stroke-dasharray:none;stroke-dashoffset:0;stroke-opacity:1;visibility:visible;display:inline;overflow:visible;enable-background:accumulate" id="path6621" d="M 303.43041,400.87994 C 306.8572,400.87994 307.99946,400.2429 307.99946,400.2429"/><path style="color:#000;fill:none;fill-opacity:1;fill-rule:evenodd;stroke:url(#linearGradient6270);stroke-width:1.00000072px;stroke-linecap:round;stroke-linejoin:miter;marker:none;marker-start:none;marker-mid:none;marker-end:none;stroke-miterlimit:4;stroke-dasharray:none;stroke-dashoffset:0;stroke-opacity:1;visibility:visible;display:inline;overflow:visible;enable-background:accumulate" id="path6623" d="M 303.43041,402.9843 C 306.8572,402.9843 307.99946,402.2429 307.99946,402.2429"/><path style="opacity:.80349342;fill:none;fill-rule:evenodd;stroke:url(#linearGradient6267);stroke-width:1.00000048px;stroke-linecap:round;stroke-linejoin:miter;stroke-opacity:1" id="path6652" d="M 299.64862,399.2429 C 296.16175,399.2429 294.99946,398.25859 294.99946,398.25859"/><path style="opacity:.80349342;fill:none;fill-rule:evenodd;stroke:url(#linearGradient6264);stroke-width:1.00000048px;stroke-linecap:round;stroke-linejoin:miter;stroke-opacity:1;display:inline" id="path6654" d="M 299.64862,401.2429 C 296.16175,401.2429 294.99946,400.25859 294.99946,400.25859"/><path style="opacity:.80349342;fill:none;fill-rule:evenodd;stroke:url(#linearGradient6261);stroke-width:1.00000048px;stroke-linecap:round;stroke-linejoin:miter;stroke-opacity:1;display:inline" id="path6656" d="M 299.64862,403.2429 C 296.16175,403.2429 294.99946,402.25859 294.99946,402.25859"/><path style="color:#000;fill:none;fill-opacity:1;fill-rule:evenodd;stroke:url(#linearGradient6258);stroke-width:1.00000072px;stroke-linecap:round;stroke-linejoin:miter;marker:none;marker-start:none;marker-mid:none;marker-end:none;stroke-miterlimit:4;stroke-dasharray:none;stroke-dashoffset:0;stroke-opacity:1;visibility:visible;display:inline;overflow:visible;enable-background:accumulate" id="path6695" d="M 303.43041,404.83446 C 306.8572,404.83446 307.99946,404.2429 307.99946,404.2429"/><path style="opacity:.80349342;fill:none;fill-rule:evenodd;stroke:url(#linearGradient6255);stroke-width:1.00000048px;stroke-linecap:round;stroke-linejoin:miter;stroke-opacity:1;display:inline" id="path6708" d="M 299.64862,405.2429 C 296.16175,405.2429 294.99946,404.25859 294.99946,404.25859"/><path style="fill:#fed12d;fill-opacity:1;fill-rule:evenodd;stroke:none;stroke-width:1px;stroke-linecap:butt;stroke-linejoin:miter;stroke-opacity:1;display:inline" id="path6155" d="M 292.49946,378.7429 L 297.0611,394.715 L 297.03628,382.82739 L 306.06504,382.82739 L 305.98222,394.7429 L 310.49946,378.7429 L 306.63651,380.79208 L 296.33848,380.79208 L 292.49946,378.7429 z"/><path id="path6126" d="M 302.43041,406.83448 C 305.8572,406.83448 306.99946,406.2429 306.99946,406.2429" style="color:#000;fill:none;fill-opacity:1;fill-rule:evenodd;stroke:url(#linearGradient6251);stroke-width:1.00000072px;stroke-linecap:round;stroke-linejoin:miter;marker:none;marker-start:none;marker-mid:none;marker-end:none;stroke-miterlimit:4;stroke-dasharray:none;stroke-dashoffset:0;stroke-opacity:1;visibility:visible;display:inline;overflow:visible;enable-background:accumulate"/><path style="opacity:.80349342;fill:none;fill-rule:evenodd;stroke:url(#linearGradient6294);stroke-width:1.00000048px;stroke-linecap:round;stroke-linejoin:miter;stroke-opacity:1;display:inline" id="path6292" d="M 300.64862,407.2429 C 297.16175,407.2429 295.99946,406.25859 295.99946,406.25859"/></g></svg>