<svg xmlns="http://www.w3.org/2000/svg" xmlns:svg="http://www.w3.org/2000/svg" xmlns:xlink="http://www.w3.org/1999/xlink" id="svg2871" width="48" height="48" version="1.1"><defs id="defs2873"><linearGradient id="linearGradient3663"><stop id="stop3665" offset="0" style="stop-color:#f4e6a3;stop-opacity:1"/><stop id="stop3675" offset=".632" style="stop-color:#e6ab43;stop-opacity:1"/><stop id="stop3756" offset=".816" style="stop-color:#e6ab43;stop-opacity:1"/><stop id="stop3671" offset="1" style="stop-color:#e08223;stop-opacity:1"/></linearGradient><radialGradient id="radialGradient3669" cx="23.145" cy="30.811" r="18" fx="23.145" fy="30.811" gradientTransform="matrix(1.578064,-0.13160012,0.08947561,1.0729338,-16.136234,0.79876136)" gradientUnits="userSpaceOnUse" xlink:href="#linearGradient3663"/><linearGradient id="linearGradient3156"><stop id="stop3158" offset="0" style="stop-color:#fff;stop-opacity:1"/><stop id="stop3160" offset="1" style="stop-color:#fff;stop-opacity:0"/></linearGradient><radialGradient id="radialGradient3704" cx="24.925" cy="27.467" r="16.964" fx="24.925" fy="27.467" gradientUnits="userSpaceOnUse" xlink:href="#linearGradient3156"/><linearGradient id="linearGradient8838"><stop id="stop8840" offset="0" style="stop-color:#000;stop-opacity:1"/><stop id="stop8842" offset="1" style="stop-color:#000;stop-opacity:0"/></linearGradient><radialGradient id="radialGradient2854" cx="62.625" cy="4.625" r="10.625" fx="62.625" fy="4.625" gradientTransform="matrix(1.976471,4.1531417e-7,-7.910735e-8,0.37647016,-98.7765,26.258795)" gradientUnits="userSpaceOnUse" xlink:href="#linearGradient8838"/></defs><g id="layer1" transform="translate(0,16)"><path id="path8836" d="m 44,28 c 0,4.418278 -6.297452,4 -19,4 -12.702548,0 -21,0.418278 -21,-4 0,-4.418278 8.297452,-5 21,-5 12.702548,0 19,0.581722 19,5 l 0,0 z" style="opacity:.3;fill:url(#radialGradient2854);fill-opacity:1;fill-rule:evenodd;stroke:none;stroke-width:.99999988;marker:none;visibility:visible;display:inline;overflow:visible"/><path id="path2883" d="m 43,24.5 a 17.5,17.5 0 1 1 -35,0 17.5,17.5 0 1 1 35,0 z" transform="matrix(1.1666667,0,0,1.1666667,-5.7500002,-20.583335)" style="fill:url(#radialGradient3669);fill-opacity:1;stroke:#888a85;stroke-opacity:1"/><path id="path3673" d="m 41.963894,24.5 a 16.463894,16.463894 0 1 1 -32.9277879,0 16.463894,16.463894 0 1 1 32.9277879,0 z" transform="matrix(1.1666667,0,0,1.1666667,-5.7500002,-20.583335)" style="opacity:.6;fill:none;stroke:#e3e4e3;stroke-opacity:1"/><path id="path3706" d="m 35.653062,24.5 a 10.153062,8.3634233 0 1 1 -20.306124,0 10.153062,8.3634233 0 1 1 20.306124,0 z" transform="matrix(1.1666667,0,0,1.1666667,-6.0796705,-22.044873)" style="fill:#f6c7a2;fill-opacity:1;stroke:none"/><path id="path3710" d="m 26,16 8,3 -2,-7" style="fill:#f7d0b1;fill-opacity:1;stroke:none"/><path id="path3712" d="m 35.653062,24.5 a 10.153062,8.3634233 0 1 1 -20.306124,0 10.153062,8.3634233 0 1 1 20.306124,0 z" transform="matrix(1.1666667,0,0,1.1666667,-6.0796705,-21.044873)" style="fill:#c56212;fill-opacity:1;stroke:none"/><path id="path3714" d="m 26,33 8,3 -2,-6" transform="translate(0,-16)" style="fill:#c56212;fill-opacity:1;stroke:none"/><path id="path3696" d="m 39.326531,24.5 a 13.826531,9.2111473 0 1 1 -27.653062,0 13.826531,9.2111473 0 1 1 27.653062,0 z" transform="matrix(1.1666667,0,0,1.1666667,-6.0796705,-29.044873)" style="opacity:.23999999;fill:url(#radialGradient3704);fill-opacity:1;stroke:none"/></g></svg>