<svg xmlns="http://www.w3.org/2000/svg" xmlns:cc="http://web.resource.org/cc/" xmlns:svg="http://www.w3.org/2000/svg" xmlns:xlink="http://www.w3.org/1999/xlink" id="svg2" width="48" height="48" version="1.0"><metadata id="metadata7"/><defs id="defs5"><linearGradient id="linearGradient4182"><stop style="stop-color:#c03b00;stop-opacity:1" id="stop4184" offset="0"/><stop style="stop-color:#e74700;stop-opacity:1" id="stop4186" offset="1"/></linearGradient><linearGradient id="linearGradient9234"><stop style="stop-color:#f57900;stop-opacity:1" id="stop9236" offset="0"/><stop style="stop-color:#f57900;stop-opacity:0" id="stop9238" offset="1"/></linearGradient><linearGradient id="linearGradient9208"><stop style="stop-color:#ffe000;stop-opacity:1" id="stop9210" offset="0"/><stop style="stop-color:#ffe000;stop-opacity:0" id="stop9212" offset="1"/></linearGradient><linearGradient id="linearGradient9200"><stop style="stop-color:#ffe84a;stop-opacity:1" id="stop9202" offset="0"/><stop style="stop-color:#ffe84a;stop-opacity:0" id="stop9204" offset="1"/></linearGradient><linearGradient id="linearGradient6839"><stop style="stop-color:#000;stop-opacity:.40170941" id="stop6841" offset="0"/><stop style="stop-color:#000;stop-opacity:0" id="stop6843" offset="1"/></linearGradient><radialGradient id="radialGradient6845" cx="14.98" cy="24.438" r="10.155" fx="14.98" fy="24.438" gradientUnits="userSpaceOnUse" xlink:href="#linearGradient6839"/><linearGradient id="linearGradient4175"><stop style="stop-color:#fff6b8;stop-opacity:1" id="stop4177" offset="0"/><stop style="stop-color:#ffef81;stop-opacity:1" id="stop4179" offset="1"/></linearGradient><linearGradient id="linearGradient4201"><stop style="stop-color:#fcaf3e;stop-opacity:1" id="stop4203" offset="0"/><stop style="stop-color:#fce94f;stop-opacity:1" id="stop4205" offset="1"/></linearGradient><linearGradient id="linearGradient4189"><stop style="stop-color:#e26f00;stop-opacity:1" id="stop4191" offset="0"/><stop style="stop-color:#ffae19;stop-opacity:1" id="stop4193" offset="1"/></linearGradient><linearGradient id="linearGradient4195" x1="1.979" x2="14.919" y1="7.512" y2="7.512" gradientUnits="userSpaceOnUse" xlink:href="#linearGradient4189"/><linearGradient id="linearGradient4207" x1="7.217" x2="7.217" y1="13.273" y2="4.593" gradientUnits="userSpaceOnUse" xlink:href="#linearGradient4201"/><linearGradient id="linearGradient4181" x1="3.019" x2="18.966" y1="10.119" y2="10.119" gradientTransform="matrix(1.386673,0,0,1.476386,40.03261,-0.243111)" gradientUnits="userSpaceOnUse" xlink:href="#linearGradient4175"/><linearGradient id="linearGradient6051" x1="7.217" x2="7.217" y1="15.416" y2="9.343" gradientUnits="userSpaceOnUse" xlink:href="#linearGradient4201"/><linearGradient id="linearGradient6049" x1="-.485" x2="14.919" y1="7.512" y2="7.512" gradientUnits="userSpaceOnUse" xlink:href="#linearGradient4189"/><linearGradient id="linearGradient6043"><stop id="stop6045" offset="0" style="stop-color:#f57900;stop-opacity:1"/><stop id="stop6047" offset="1" style="stop-color:#edd400;stop-opacity:1"/></linearGradient><linearGradient id="linearGradient6037"><stop id="stop6039" offset="0" style="stop-color:#fcaf3e;stop-opacity:1"/><stop id="stop6041" offset="1" style="stop-color:#fce94f;stop-opacity:1"/></linearGradient><linearGradient id="linearGradient7026" x1="1.979" x2="14.919" y1="7.512" y2="7.512" gradientUnits="userSpaceOnUse" xlink:href="#linearGradient4189"/><linearGradient id="linearGradient7028" x1="7.217" x2="7.217" y1="13.273" y2="4.593" gradientUnits="userSpaceOnUse" xlink:href="#linearGradient4201"/><linearGradient id="linearGradient7030" x1="3.019" x2="18.966" y1="10.119" y2="10.119" gradientTransform="matrix(1.834083,0,0,1.952742,2.880761,0.516054)" gradientUnits="userSpaceOnUse" xlink:href="#linearGradient4175"/><radialGradient id="radialGradient9206" cx="18.628" cy="11.902" r=".751" fx="18.628" fy="11.902" gradientUnits="userSpaceOnUse" xlink:href="#linearGradient9200"/><linearGradient id="linearGradient9214" x1="22" x2="22" y1="4.8" y2="14.142" gradientUnits="userSpaceOnUse" xlink:href="#linearGradient9208"/><linearGradient id="linearGradient9240" x1="20.4" x2="20.4" y1="38.667" y2="27.292" gradientUnits="userSpaceOnUse" xlink:href="#linearGradient9234"/><radialGradient id="radialGradient10116" cx="14.98" cy="24.438" r="10.155" fx="14.98" fy="24.438" gradientUnits="userSpaceOnUse" xlink:href="#linearGradient6839"/><linearGradient id="linearGradient4188" x1="6.464" x2="6.464" y1="13.196" y2="2.429" gradientUnits="userSpaceOnUse" xlink:href="#linearGradient4182"/></defs><path style="opacity:1;fill:url(#radialGradient10116);fill-opacity:1;fill-rule:nonzero;stroke:none;stroke-width:1;stroke-linecap:butt;stroke-linejoin:round;stroke-miterlimit:4;stroke-dasharray:none;stroke-dashoffset:0;stroke-opacity:1" id="path5964" d="M 25.135029,24.437885 A 10.15484,10.15484 0 1 1 25.134977,24.405482" transform="matrix(2.067979,0,0,0.608807,-6.97872,24.95253)"/><path id="path7012" d="M 14.433895,7.5118856 A 7.2169476,7.3399639 0 1 1 14.433858,7.4884645" transform="matrix(2.840536,0,0,2.792929,3.5,1.019835)" style="opacity:1;fill:url(#linearGradient7026);fill-opacity:1;fill-rule:nonzero;stroke:#ce5c00;stroke-width:.35503393;stroke-linecap:round;stroke-linejoin:round;stroke-miterlimit:4;stroke-dasharray:none;stroke-dashoffset:0;stroke-opacity:1"/><path style="opacity:1;fill:none;fill-opacity:1;fill-rule:nonzero;stroke:url(#linearGradient7028);stroke-width:.37376186;stroke-linecap:round;stroke-linejoin:round;stroke-miterlimit:4;stroke-dasharray:none;stroke-dashoffset:0;stroke-opacity:1" id="path7014" d="M 14.433895,7.5118856 A 7.2169476,7.3399639 0 1 1 14.433858,7.4884645" transform="matrix(2.697833,0,0,2.653355,4.547512,2.079533)"/><path id="path7016" d="M 8.190342,20.708311 C 8.1703537,6.3038993 26.116033,6.5569734 32.543918,12.445493 C 34.538426,14.694763 39.001539,13.044543 36.468666,10.166093 C 26.135035,-1.3618941 6.8962804,7.319666 8.190342,20.708311 z" style="fill:url(#linearGradient9214);fill-opacity:1;fill-rule:evenodd;stroke:none;stroke-width:1px;stroke-linecap:butt;stroke-linejoin:miter;stroke-opacity:1"/><path style="fill:url(#linearGradient9240);fill-opacity:1;fill-rule:evenodd;stroke:none;stroke-width:1px;stroke-linecap:butt;stroke-linejoin:miter;stroke-opacity:1" id="path7018" d="M 39.50447,27.299343 C 34.800073,42.327963 18.308682,36.589906 13.714704,29.331934 C 12.405002,26.672122 7.6414067,27.175936 9.2985796,30.574998 C 16.11864,44.234304 37.082702,40.547881 39.50447,27.299343 z"/><g id="g9460" transform="matrix(2.817613,0,0,2.817614,5.536697,-0.485289)" style="fill:url(#linearGradient4188);fill-opacity:1"><path id="path7707" d="M 9.4516821,8.5573773 C 8.0906341,14.152458 5.7954321,13.026127 5.7954321,13.026127 C 5.4199681,12.717591 5.5573131,10.821517 5.9204321,10.338627 C 6.4032901,10.359871 6.8077121,10.615882 7.5766821,8.2448773 C 8.3364881,5.9021301 7.7927181,5.5778374 7.2641821,5.3073773 C 7.2333031,4.3181647 7.9730301,3.1933083 8.5141821,2.9323773 C 8.5141821,2.9323773 10.805552,2.9918052 9.4516821,8.5573773 z" style="fill:url(#linearGradient4188);fill-opacity:1;fill-rule:evenodd;stroke:none;stroke-width:1px;stroke-linecap:butt;stroke-linejoin:miter;stroke-opacity:1"/><path id="path8582" d="M 7.6134826,2.5599675 C 7.0256447,3.2228687 6.6494921,4.0864896 6.3947326,4.9974675 C 6.3947326,4.9974675 5.3695628,4.2706896 5.9122078,3.1548276 C 6.4668958,2.0142026 7.6134826,2.5599675 7.6134826,2.5599675 z" style="fill:url(#linearGradient4188);fill-opacity:1;fill-rule:evenodd;stroke:none;stroke-width:1px;stroke-linecap:butt;stroke-linejoin:miter;stroke-opacity:1"/><path style="fill:url(#linearGradient4188);fill-opacity:1;fill-rule:evenodd;stroke:none;stroke-width:1px;stroke-linecap:butt;stroke-linejoin:miter;stroke-opacity:1" id="path9458" d="M 5.1155026,10.157887 C 4.6936596,10.9488 4.6380996,11.855502 4.9488216,12.877993 C 4.9488216,12.877993 3.8683676,12.975254 3.8070878,11.427205 C 3.7458441,9.8800695 5.1155026,10.157887 5.1155026,10.157887 z"/></g><path id="path7020" d="M 9.0604191,23.857192 C 9.4543105,22.162722 9.4344575,16.50586 10.635981,17.079314 C 11.837503,17.652767 12.731187,25.407262 13.866507,26.151005 C 15.001827,26.894747 14.438966,21.832866 15.177262,20.054285 C 15.915553,18.275704 15.88434,20.392276 16.819675,19.036687 C 17.755007,17.681096 17.884277,12.955766 18.918593,14.631925 C 19.952902,16.308085 19.832506,23.646286 20.956926,25.741328 C 22.081347,27.836373 22.25529,23.090771 23.416275,23.012099 C 24.577258,22.933426 24.929877,26.000093 25.600857,25.426642 C 26.271839,24.853188 25.668633,23.149805 26.100195,20.718288 C 26.531758,18.286769 26.152362,14.544639 27.327114,15.700572 C 28.501863,16.856505 29.420674,23.876311 30.799196,25.342011 C 32.177721,26.807713 31.28522,21.96476 32.841205,21.563372 C 34.397188,21.161984 35.977646,23.193191 37.02313,23.736462" style="fill:none;fill-opacity:1;fill-rule:evenodd;stroke:url(#linearGradient7030);stroke-width:1.00000072;stroke-linecap:round;stroke-linejoin:round;stroke-miterlimit:4;stroke-dasharray:none;stroke-opacity:1"/><path id="path7022" d="M 37.354566,22.429081 L 35.878767,15.933146 L 36.999491,22.549082 L 35.244302,17.836985 L 36.640127,22.723508 L 31.971965,19.448256 L 36.21416,23.113311 L 29.851342,23.675425 L 35.99771,23.515425 L 32.274504,24.939635 L 36.094205,23.981004 L 32.162301,26.240773 L 36.265875,24.585235 L 36.83261,24.952157 L 35.63968,29.523554 L 37.467078,24.881774 L 38.860759,29.323486 L 38.035952,24.944655 L 40.463772,27.383077 L 38.487522,24.373507 L 42.36968,25.221191 L 38.647464,23.785811 L 41.969642,21.32736 L 38.607989,23.439655 L 42.891947,17.680662 L 38.365424,22.939468 L 40.066242,19.55044 L 37.893045,22.553891 L 38.035952,19.486981 L 37.354566,22.429081 z" style="fill:#ffea53;fill-opacity:1;fill-rule:evenodd;stroke:none;stroke-width:1px;stroke-linecap:butt;stroke-linejoin:miter;stroke-opacity:1"/><path style="opacity:1;fill:url(#radialGradient9206);fill-opacity:1;fill-rule:nonzero;stroke:none;stroke-width:.69999999;stroke-linecap:butt;stroke-linejoin:round;stroke-miterlimit:4;stroke-dasharray:none;stroke-dashoffset:0;stroke-opacity:1" id="path8325" d="M 19.379145,11.901631 A 0.75130093,0.75130093 0 1 1 19.379141,11.899234" transform="matrix(4.922224,0,0,4.923363,-54.3699,-34.85069)"/><path id="path7024" d="M 19.379145,11.901631 A 0.75130093,0.75130093 0 1 1 19.379141,11.899234" transform="matrix(1.952289,0,0,1.952741,0.95358,0.504567)" style="opacity:1;fill:#fcf5c7;fill-opacity:1;fill-rule:nonzero;stroke:none;stroke-width:.69999999;stroke-linecap:butt;stroke-linejoin:round;stroke-miterlimit:4;stroke-dasharray:none;stroke-dashoffset:0;stroke-opacity:1"/></svg>