<svg xmlns="http://www.w3.org/2000/svg" xmlns:cc="http://web.resource.org/cc/" xmlns:sodipodi="http://inkscape.sourceforge.net/DTD/s odipodi-0.dtd" xmlns:svg="http://www.w3.org/2000/svg" xmlns:xlink="http://www.w3.org/1999/xlink" id="svg2" width="48" height="48" version="1.0" sodipodi:docbase="/home/hbons/Desktop/Gaim Refresh/protocols/48/scalable" sodipodi:docname="qq.svg" sodipodi:version=".32"><defs id="defs4"><linearGradient id="linearGradient2234"><stop style="stop-color:#fff;stop-opacity:1" id="stop2236" offset="0"/><stop style="stop-color:#fff;stop-opacity:0" id="stop2238" offset="1"/></linearGradient><linearGradient id="linearGradient2226"><stop style="stop-color:#fff;stop-opacity:1" id="stop2228" offset="0"/><stop style="stop-color:#fff;stop-opacity:0" id="stop2230" offset="1"/></linearGradient><linearGradient id="linearGradient3150"><stop style="stop-color:#2e3436;stop-opacity:1" id="stop3152" offset="0"/><stop style="stop-color:#2e3436;stop-opacity:0" id="stop3154" offset="1"/></linearGradient><radialGradient id="radialGradient3156" cx="10.749" cy="10.458" r="6.645" fx="10.749" fy="10.458" gradientTransform="matrix(-0.842757,5.698892e-16,-4.565819e-9,-0.35721,19.80716,14.19321)" gradientUnits="userSpaceOnUse" xlink:href="#linearGradient3150"/><linearGradient id="linearGradient2232" x1="13.296" x2="13.296" y1="9.898" y2="11.763" gradientUnits="userSpaceOnUse" xlink:href="#linearGradient2226"/><linearGradient id="linearGradient2240" x1="23.995" x2="23.995" y1="3.629" y2="15.461" gradientUnits="userSpaceOnUse" xlink:href="#linearGradient2234"/></defs><sodipodi:namedview id="base" fill="#f57900" bordercolor="#666666" borderopacity="1" pagecolor="#ffffff" showgrid="true" showguides="true"/><metadata id="metadata7"/><g id="layer1"><path style="opacity:.6;fill:url(#radialGradient3156);fill-opacity:1;stroke:none;stroke-width:1;stroke-miterlimit:4;stroke-dasharray:none;stroke-opacity:1" id="path3140" d="M 17.393564 10.457643 A 6.6449099 2.3675451 0 1 1 4.1037445,10.457643 A 6.6449099 2.3675451 0 1 1 17.393564 10.457643 z" transform="matrix(2.884895,0,0,2.493965,-7.834213,14.7186)" sodipodi:cx="10.749" sodipodi:cy="10.458" sodipodi:rx="6.645" sodipodi:ry="2.368" sodipodi:type="arc"/><path style="fill:#f57900;fill-opacity:1;stroke:#ce5c00;stroke-width:1.12731504;stroke-miterlimit:4;stroke-opacity:1" id="path2344" d="M 42.428297,39.500007 C 42.428297,41.665624 39.100419,43.423228 34.999998,43.423228 C 30.899577,43.423228 27.571699,41.665624 27.571699,39.500007 C 27.571699,37.334387 30.899577,35.576783 34.999998,35.576783 C 39.100419,35.576783 42.428297,37.334387 42.428297,39.500007 z"/><path style="opacity:.2;fill:#f57900;fill-opacity:1;stroke:#fff;stroke-width:1.12731504;stroke-miterlimit:4;stroke-opacity:1" id="path2213" d="M 35,36.75 C 33.122288,36.75 31.437541,37.185098 30.3125,37.78125 C 29.187459,38.377402 28.75,39.032317 28.75,39.5 C 28.75,39.96768 29.187459,40.622598 30.3125,41.21875 C 31.437541,41.814902 33.12229,42.25 35,42.25 C 36.877711,42.25 38.562459,41.814902 39.6875,41.21875 C 40.812541,40.622598 41.25,39.967679 41.25,39.5 C 41.25,39.032317 40.812541,38.377402 39.6875,37.78125 C 38.562459,37.185098 36.877713,36.75 35,36.75 z" sodipodi:type="inkscape:offset" xlink:href="#path2344"/><path style="fill:#f57900;fill-opacity:1;stroke:#ce5c00;stroke-width:1.12731493;stroke-miterlimit:4;stroke-opacity:1" id="path2340" d="M 20.428294,39.500007 C 20.428294,41.665624 17.100417,43.423228 12.999998,43.423228 C 8.8995795,43.423228 5.5717033,41.665624 5.5717033,39.500007 C 5.5717033,37.334387 8.8995795,35.576783 12.999998,35.576783 C 17.100417,35.576783 20.428294,37.334387 20.428294,39.500007 z"/><path style="fill:#f57900;fill-opacity:1;stroke:#fff;stroke-width:1.12731493;stroke-miterlimit:4;stroke-opacity:1;opacity:.2" id="path2216" d="M 13,36.6875 C 11.113496,36.6875 9.417597,37.116607 8.28125,37.71875 C 7.144903,38.320893 6.6875,39.00096 6.6875,39.5 C 6.6875,39.999037 7.1449028,40.679107 8.28125,41.28125 C 9.4175972,41.883393 11.113496,42.3125 13,42.3125 C 14.886503,42.3125 16.582403,41.883393 17.71875,41.28125 C 18.855097,40.679107 19.3125,39.999036 19.3125,39.5 C 19.3125,39.00096 18.855097,38.320893 17.71875,37.71875 C 16.582403,37.116607 14.886504,36.6875 13,36.6875 z" sodipodi:type="inkscape:offset" xlink:href="#path2340"/><path style="fill:#555753;fill-opacity:1;stroke:#2e3436;stroke-width:.9999994;stroke-miterlimit:4;stroke-opacity:1" id="path2346" d="M 16.512817,28.000001 C 16.512817,31.046362 13.819074,33.518772 10.499997,33.518772 C 7.1809214,33.518772 4.4871784,31.046362 4.4871784,28.000001 C 4.4871784,24.953638 7.1809214,22.481229 10.499997,22.481229 C 13.819074,22.481229 16.512817,24.953638 16.512817,28.000001 z"/><path style="fill:none;fill-opacity:1;stroke:#fff;stroke-width:.9999994;stroke-miterlimit:4;stroke-opacity:1;opacity:.2" id="path2207" d="M 10.5,23.46875 C 7.677383,23.46875 5.5000001,25.537211 5.5,28 C 5.5,30.462786 7.6773835,32.53125 10.5,32.53125 C 13.322618,32.53125 15.5,30.462785 15.5,28 C 15.5,25.537212 13.322618,23.468749 10.5,23.46875 z" sodipodi:type="inkscape:offset" xlink:href="#path2346"/><path style="fill:#555753;fill-opacity:1;stroke:#2e3436;stroke-width:.99999982;stroke-miterlimit:4;stroke-opacity:1" id="path2348" d="M 43.529524,27.990624 C 43.529524,31.032236 40.925766,33.500791 37.717565,33.500791 C 34.509364,33.500791 31.905607,31.032236 31.905607,27.990624 C 31.905607,24.94901 34.509364,22.480455 37.717565,22.480455 C 40.925766,22.480455 43.529524,24.94901 43.529524,27.990624 z"/><path style="fill:#555753;fill-opacity:1;stroke:#fff;stroke-width:.99999982;stroke-miterlimit:4;stroke-opacity:1;opacity:.2" id="path2210" d="M 37.71875,23.5 C 35.037951,23.5 32.9375,25.540295 32.9375,28 C 32.9375,30.459704 35.031333,32.468751 37.71875,32.46875 C 40.406169,32.46875 42.499998,30.459706 42.5,28 C 42.5,25.540294 40.39955,23.5 37.71875,23.5 z" sodipodi:type="inkscape:offset" xlink:href="#path2348"/><path style="fill:#555753;fill-opacity:1;stroke:#2e3436;stroke-width:.99999851;stroke-miterlimit:4;stroke-opacity:1" id="path2322" d="M 39.499823,30.499795 C 39.499823,37.123448 32.555881,42.499166 23.999954,42.499166 C 15.444028,42.499166 8.500088,37.123448 8.500088,30.499795 C 8.500088,23.876141 15.444028,18.500423 23.999954,18.500423 C 32.555881,18.500423 39.499823,23.876141 39.499823,30.499795 z"/><path style="fill:#555753;fill-opacity:1;stroke:#fff;stroke-width:.99999851;stroke-miterlimit:4;stroke-opacity:1;opacity:.2" id="path2204" d="M 24,19.5 C 19.931993,19.5 16.266755,20.79143 13.65625,22.8125 C 11.045745,24.83357 9.5000001,27.538461 9.5,30.5 C 9.5,33.461538 11.045745,36.16643 13.65625,38.1875 C 16.266755,40.20857 19.931994,41.5 24,41.5 C 28.068007,41.5 31.733245,40.20857 34.34375,38.1875 C 36.954255,36.16643 38.499999,33.461538 38.5,30.5 C 38.5,27.538461 36.954255,24.83357 34.34375,22.8125 C 31.733245,20.79143 28.068007,19.5 24,19.5 z" sodipodi:type="inkscape:offset" xlink:href="#path2322"/><path style="fill:#eeeeec;fill-opacity:1;stroke:#babdb6;stroke-width:.99999964;stroke-miterlimit:4;stroke-opacity:1" id="path2324" d="M 35.499727,31.513502 C 35.499727,36.473648 30.347846,40.499275 23.999994,40.499275 C 17.652141,40.499275 12.500261,36.473648 12.500261,31.513502 C 12.500261,26.553353 17.652141,22.527728 23.999994,22.527728 C 30.347846,22.527728 35.499727,26.553353 35.499727,31.513502 z"/><path style="fill:#ef2929;fill-opacity:1;stroke:#a40000;stroke-width:.99999976;stroke-miterlimit:4;stroke-opacity:1" id="path2338" d="M 39.500074,23.567769 C 39.500074,26.23172 32.974173,28.996603 24.456043,28.996603 C 22.326509,28.996603 16.736214,27.907042 11.047899,32.502199 C 9.5994849,31.202637 8.2282338,30.682189 7.4999943,29.550469 C 10.583901,26.508381 9.3151719,24.813625 9.3151719,23.481649 C 9.3151719,20.817694 15.551058,19.435466 24.069189,19.435466 C 32.587316,19.435466 39.500074,20.903814 39.500074,23.567769 z" sodipodi:nodetypes="csccscc"/><path style="opacity:.2;fill:#ef2929;fill-opacity:1;stroke:#fff;stroke-width:1.00000036;stroke-miterlimit:4;stroke-opacity:1" id="path2352" d="M 23.78125,20.625 C 19.513931,20.625 15.847844,21.000067 13.34375,21.71875 C 12.091703,22.078092 11.128194,22.525914 10.5625,22.96875 C 9.9968057,23.411586 9.84375,23.757615 9.84375,24.15625 C 9.84375,24.61981 10.180025,25.486492 10.09375,26.75 C 10.020891,27.817027 9.4211808,29.129125 8.28125,30.59375 C 8.8275971,31.260718 9.8376614,32.075363 10.96875,33.09375 C 13.726867,30.866878 16.436481,29.770299 18.71875,29.4375 C 21.226032,29.07189 23.299616,29.375 24.1875,29.375 C 28.393452,29.375 32.111073,28.617129 34.6875,27.53125 C 35.975713,26.988311 36.964234,26.376877 37.59375,25.78125 C 38.223266,25.185623 38.4375,24.662279 38.4375,24.28125 C 38.4375,23.923108 38.262431,23.559823 37.625,23.09375 C 36.987569,22.627677 35.940994,22.158273 34.59375,21.78125 C 31.899262,21.027204 28.043658,20.625 23.78125,20.625 z" sodipodi:type="inkscape:offset" xlink:href="#path2338"/><path style="fill:#555753;fill-opacity:1;stroke:#2e3436;stroke-width:.99999982;stroke-miterlimit:4;stroke-opacity:1" id="rect2317" d="M 21.960325,3.5010229 L 25.764207,3.5010229 C 31.085197,3.5010229 35.608549,8.5308564 36.949275,14.000863 C 38.32645,19.619567 37.747111,24.500705 27.838472,24.500705 L 20.083608,24.500705 C 10.158913,24.500705 9.6944095,19.619567 11.071582,14.000863 C 12.355856,8.7611743 16.639337,3.5010229 21.960325,3.5010229 z" sodipodi:nodetypes="ccsccsc"/><path style="opacity:.2;fill:url(#linearGradient2240);fill-opacity:1;stroke:#fff;stroke-width:.9999997;stroke-miterlimit:4;stroke-opacity:1" id="path2355" d="M 22.3125,5.625 C 20.004556,5.625 17.866452,6.7459198 16.125,8.5625 C 14.383548,10.37908 13.095153,12.874863 12.5,15.3125 C 11.838105,18.0235 11.722466,20.352475 12.65625,21.875 C 13.590034,23.397525 15.704379,24.53125 20.46875,24.53125 L 28.15625,24.53125 C 32.912367,24.53125 35.073893,23.40303 36.03125,21.875 C 36.988607,20.34697 36.879156,18.0174 36.21875,15.3125 C 34.977402,10.228171 30.73919,5.6249999 26.09375,5.625 L 22.3125,5.625 z" sodipodi:type="inkscape:offset" xlink:href="#rect2317"/><path style="opacity:1;fill:#eeeeec;fill-opacity:1;stroke:none;stroke-width:1;stroke-miterlimit:4;stroke-dasharray:none;stroke-opacity:1" id="path2326" d="M 6.7691156 3.4618888 A 1.2307483 2.4871371 0 1 1 4.307619,3.4618888 A 1.2307483 2.4871371 0 1 1 6.7691156 3.4618888 z" transform="matrix(2.437541,0,0,2.010344,6.500003,5.040414)" sodipodi:cx="5.538" sodipodi:cy="3.462" sodipodi:rx="1.231" sodipodi:ry="2.487" sodipodi:type="arc"/><path style="opacity:1;fill:#eeeeec;fill-opacity:1;stroke:none;stroke-width:1;stroke-miterlimit:4;stroke-dasharray:none;stroke-opacity:1" id="path2328" d="M 6.7691156 3.4618888 A 1.2307483 2.4871371 0 1 1 4.307619,3.4618888 A 1.2307483 2.4871371 0 1 1 6.7691156 3.4618888 z" transform="matrix(2.336368,0,0,1.926902,14.93582,5.121749)" sodipodi:cx="5.538" sodipodi:cy="3.462" sodipodi:rx="1.231" sodipodi:ry="2.487" sodipodi:type="arc"/><path style="fill:#f57900;fill-opacity:1;stroke:#ce5c00;stroke-width:.99999952;stroke-miterlimit:4;stroke-opacity:1" id="path2320" d="M 34.506346,21.499996 C 34.506346,24.245838 29.795953,26.474343 23.99207,26.474343 C 18.188191,26.474343 13.477796,24.245838 13.477796,21.499996 C 13.477796,18.754158 18.188191,16.52565 23.99207,16.52565 C 29.795953,16.52565 34.506346,18.754158 34.506346,21.499996 z"/><path style="opacity:1;fill:#2e3436;fill-opacity:1;stroke:none;stroke-width:1;stroke-miterlimit:4;stroke-dasharray:none;stroke-opacity:1" id="path2330" d="M 6.7691156 3.4618888 A 1.2307483 2.4871371 0 1 1 4.307619,3.4618888 A 1.2307483 2.4871371 0 1 1 6.7691156 3.4618888 z" transform="matrix(1.218772,0,0,0.603105,19.74999,11.41212)" sodipodi:cx="5.538" sodipodi:cy="3.462" sodipodi:rx="1.231" sodipodi:ry="2.487" sodipodi:type="arc"/><path style="opacity:1;fill:#2e3436;fill-opacity:1;stroke:none;stroke-width:1;stroke-miterlimit:4;stroke-dasharray:none;stroke-opacity:1" id="path2332" d="M 6.7691156 3.4618888 A 1.2307483 2.4871371 0 1 1 4.307619,3.4618888 A 1.2307483 2.4871371 0 1 1 6.7691156 3.4618888 z" transform="matrix(1.21877,0,0,0.603105,14.75,11.41212)" sodipodi:cx="5.538" sodipodi:cy="3.462" sodipodi:rx="1.231" sodipodi:ry="2.487" sodipodi:type="arc"/><path style="opacity:.2;fill:url(#linearGradient2232);fill-opacity:1;stroke:#fff;stroke-width:.60585797;stroke-miterlimit:4;stroke-dasharray:none;stroke-opacity:1" id="path2336" d="M 21.517762 10.923561 A 8.2214088 1.7085644 0 1 1 5.0749445,10.923561 A 8.2214088 1.7085644 0 1 1 21.517762 10.923561 z" transform="matrix(1.167356,0,0,2.333756,8.467761,-4.004284)" sodipodi:cx="13.296" sodipodi:cy="10.924" sodipodi:rx="8.221" sodipodi:ry="1.709" sodipodi:type="arc"/></g></svg>