<svg xmlns="http://www.w3.org/2000/svg" xmlns:svg="http://www.w3.org/2000/svg" xmlns:xlink="http://www.w3.org/1999/xlink" id="svg2" width="48" height="48" version="1.0"><defs id="defs3"><linearGradient id="linearGradient3653"><stop id="stop3655" offset="0" style="stop-color:#eeeeec;stop-opacity:1"/><stop id="stop3657" offset="1" style="stop-color:#fff;stop-opacity:1"/></linearGradient><linearGradient id="linearGradient3606"><stop id="stop3608" offset="0" style="stop-color:#888a85;stop-opacity:1"/><stop id="stop3610" offset="1" style="stop-color:#555753;stop-opacity:1"/></linearGradient><linearGradient id="linearGradient5702"><stop id="stop5704" offset="0" style="stop-color:#000;stop-opacity:1"/><stop id="stop5706" offset="1" style="stop-color:#000;stop-opacity:0"/></linearGradient><radialGradient id="radialGradient5708" cx="15.625" cy="29.768" r="13.839" fx="15.625" fy="29.768" gradientTransform="matrix(1,0,0,0.07096774,0,27.655299)" gradientUnits="userSpaceOnUse" xlink:href="#linearGradient5702"/><radialGradient id="radialGradient3614" cx="9.6" cy="8.001" r="20" fx="9.6" fy="8.001" gradientTransform="matrix(1.6999893,0,0,1.0000541,-7.3192065,-0.00129309)" gradientUnits="userSpaceOnUse" xlink:href="#linearGradient3606"/><linearGradient id="linearGradient3659" x1="20" x2="20" y1="40" y2="2" gradientUnits="userSpaceOnUse" xlink:href="#linearGradient3653"/></defs><g id="layer1"><path id="path4731" d="m 29.464286,29.767857 a 13.839286,0.98214287 0 1 1 -27.6785719,0 13.839286,0.98214287 0 1 1 27.6785719,0 z" transform="matrix(1.5927335,0,0,2.1126475,-0.928756,-17.963909)" style="opacity:.3;color:#000;fill:url(#radialGradient5708);fill-opacity:1;fill-rule:nonzero;stroke:none;stroke-width:1.00000083;marker:none;visibility:visible;display:inline;overflow:visible;enable-background:accumulate"/><rect id="rect2914" width="41" height="41" x="3.5" y="3.5" rx="1.003" ry="1" style="fill:url(#radialGradient3614);fill-opacity:1;stroke:#2e3436;stroke-width:1.00003672;stroke-linecap:round;stroke-linejoin:round;stroke-miterlimit:0;stroke-opacity:1;stroke-dasharray:none;stroke-dashoffset:0"/><rect id="rect3698" width="38.871" height="38.903" x="4.611" y="4.595" rx=".382" ry=".381" style="opacity:.23999999;fill:none;stroke:#fff;stroke-width:1.00123405;stroke-linecap:round;stroke-linejoin:round;stroke-miterlimit:0;stroke-opacity:1;stroke-dasharray:none;stroke-dashoffset:0"/><path id="path3616" d="m 18,42 6,0 0,-18 -6,0 0,18 z m -12,0 6,0 0,-18 -6,0 0,18 z m 24,-8 c 0,4 3,8 7,8 l 5,0 0,-6 c -6,0 -6,-1 -6,-4 l 0,-9.5 C 36,16 31,12 27,12 l -21,0 0,6 19,0 c 3,0 5,2 5,5 l 0,11 z" style="fill:url(#linearGradient3659);fill-opacity:1;stroke:none"/></g></svg>