<svg xmlns="http://www.w3.org/2000/svg" xmlns:cc="http://web.resource.org/cc/" xmlns:sodipodi="http://inkscape.sourceforge.net/DTD/s odipodi-0.dtd" xmlns:svg="http://www.w3.org/2000/svg" xmlns:xlink="http://www.w3.org/1999/xlink" id="svg2" width="48" height="48" version="1.0" sodipodi:docbase="/home/hbons/Desktop/Gaim Refresh/protocols/48" sodipodi:docname="sip.svg" sodipodi:version=".32"><defs id="defs4"><linearGradient id="linearGradient2227"><stop style="stop-color:#fff;stop-opacity:1" id="stop2229" offset="0"/><stop style="stop-color:#fff;stop-opacity:0" id="stop2231" offset="1"/></linearGradient><linearGradient id="linearGradient2264"><stop style="stop-color:#eeeeec;stop-opacity:1" id="stop2266" offset="0"/><stop style="stop-color:#eeeeec;stop-opacity:0" id="stop2268" offset="1"/></linearGradient><linearGradient id="linearGradient3150"><stop style="stop-color:#2e3436;stop-opacity:1" id="stop3152" offset="0"/><stop style="stop-color:#2e3436;stop-opacity:0" id="stop3154" offset="1"/></linearGradient><radialGradient id="radialGradient3156" cx="10.749" cy="10.458" r="6.645" fx="10.749" fy="10.458" gradientTransform="matrix(-1.017285,3.152773e-16,-5.511361e-9,-0.35721,21.6831,14.19321)" gradientUnits="userSpaceOnUse" xlink:href="#linearGradient3150"/><linearGradient id="linearGradient2316"><stop style="stop-color:#fff;stop-opacity:1" id="stop2318" offset="0"/><stop style="stop-color:#fff;stop-opacity:0" id="stop2320" offset="1"/></linearGradient><linearGradient id="linearGradient2322" x1="11.5" x2="11.5" y1="-1.7" y2="6.158" gradientTransform="translate(-0.526317,6.411502)" gradientUnits="userSpaceOnUse" xlink:href="#linearGradient2316"/><linearGradient id="linearGradient2270" x1="-13.577" x2="-9" y1="7.5" y2="7.5" gradientUnits="userSpaceOnUse" xlink:href="#linearGradient2264"/><linearGradient id="linearGradient2272" x1="5" x2="14" y1="-15.5" y2="-15.5" gradientUnits="userSpaceOnUse" xlink:href="#linearGradient2264"/><linearGradient id="linearGradient2274" x1="5" x2="10" y1="-21.5" y2="-21.5" gradientUnits="userSpaceOnUse" xlink:href="#linearGradient2264"/><linearGradient id="linearGradient2276" x1="16" x2="21" y1="5.5" y2="5.5" gradientUnits="userSpaceOnUse" xlink:href="#linearGradient2264"/><linearGradient id="linearGradient2278" x1="16" x2="21" y1="9.5" y2="9.5" gradientUnits="userSpaceOnUse" xlink:href="#linearGradient2264"/><linearGradient id="linearGradient2280" x1="5" x2="14" y1="-11.5" y2="-11.5" gradientUnits="userSpaceOnUse" xlink:href="#linearGradient2264"/><linearGradient id="linearGradient2282" x1="1" x2="8" y1="13.5" y2="13.5" gradientUnits="userSpaceOnUse" xlink:href="#linearGradient2264"/><linearGradient id="linearGradient2284" x1="1" x2="8" y1="9.5" y2="9.5" gradientUnits="userSpaceOnUse" xlink:href="#linearGradient2264"/><linearGradient id="linearGradient2286" x1="-10" x2="-5.423" y1="1.5" y2="1.5" gradientUnits="userSpaceOnUse" xlink:href="#linearGradient2264"/><linearGradient id="linearGradient2288" x1="1" x2="8" y1="5.5" y2="5.5" gradientUnits="userSpaceOnUse" xlink:href="#linearGradient2264"/><linearGradient id="linearGradient2233" x1="25.016" x2="25.016" y1="8.896" y2="21.734" gradientUnits="userSpaceOnUse" xlink:href="#linearGradient2227"/></defs><sodipodi:namedview id="base" fill="#eeeeec" bordercolor="#666666" borderopacity="1" pagecolor="#ffffff" showgrid="true"/><metadata id="metadata7"/><g id="layer1"><path style="opacity:.4;fill:url(#radialGradient3156);fill-opacity:1;stroke:none;stroke-width:1;stroke-miterlimit:4;stroke-dasharray:none;stroke-opacity:1" id="path3140" d="M 17.393564 10.457643 A 6.6449099 2.3675451 0 1 1 4.1037445,10.457643 A 6.6449099 2.3675451 0 1 1 17.393564 10.457643 z" transform="matrix(3.376861,0,0,1.900703,-12.73565,10.62313)" sodipodi:cx="10.749" sodipodi:cy="10.458" sodipodi:rx="6.645" sodipodi:ry="2.368" sodipodi:type="arc"/><path style="fill:#729fcf;fill-opacity:1;stroke:#3465a4;stroke-width:1.00000095;stroke-miterlimit:4;stroke-opacity:1" id="rect2212" d="M 2.4375,10.5 L 2.4375,22.5 L 13.75,22.5 L 13.75,26.5 L 2.4375,26.5 L 2.4375,30.5 L 17.5,30.5 L 17.5,18.5 L 6.21875,18.5 L 6.21875,14.5 L 17.5,14.5 L 17.5,10.5 L 2.4375,10.5 z M 21.46875,10.5 L 21.46875,30.5 L 25.5,30.5 L 25.5,10.5 L 21.46875,10.5 z M 29.5,10.5 L 29.5,30.5 L 33.5,30.5 L 33.5,22.5 L 45.5,22.5 L 45.5,10.5 L 29.5,10.5 z M 33.5,14.5 L 41.5,14.5 L 41.5,18.5625 L 33.5,18.5625 L 33.5,14.5 z"/><path style="fill:url(#linearGradient2233);fill-opacity:1;stroke:#fff;stroke-width:1.00000095;stroke-miterlimit:4;stroke-opacity:1;opacity:.35" id="path1352" d="M 3.46875,11.53125 L 3.46875,21.46875 L 13.75,21.46875 C 14.316987,21.474875 14.775125,21.933013 14.78125,22.5 L 14.78125,26.5 C 14.775125,27.066987 14.316987,27.525125 13.75,27.53125 L 3.46875,27.53125 L 3.46875,29.46875 L 16.46875,29.46875 L 16.46875,19.53125 L 6.21875,19.53125 C 5.6517628,19.525125 5.1936251,19.066987 5.1875,18.5 L 5.1875,14.5 C 5.1936251,13.933013 5.6517628,13.474875 6.21875,13.46875 L 16.46875,13.46875 L 16.46875,11.53125 L 3.46875,11.53125 z M 22.5,11.53125 L 22.5,29.46875 L 24.46875,29.46875 L 24.46875,11.53125 L 22.5,11.53125 z M 30.53125,11.53125 L 30.53125,29.46875 L 32.46875,29.46875 L 32.46875,22.5 C 32.474875,21.933013 32.933013,21.474875 33.5,21.46875 L 44.46875,21.46875 L 44.46875,11.53125 L 30.53125,11.53125 z M 33.3125,13.46875 C 33.374873,13.463118 33.437627,13.463118 33.5,13.46875 L 41.5,13.46875 C 42.066987,13.474875 42.525125,13.933013 42.53125,14.5 L 42.53125,18.5625 C 42.525125,19.129487 42.066987,19.587625 41.5,19.59375 L 33.5,19.59375 C 32.933013,19.587625 32.474875,19.129487 32.46875,18.5625 L 32.46875,14.5 C 32.464991,13.997926 32.819624,13.564486 33.3125,13.46875 z" sodipodi:type="inkscape:offset" xlink:href="#rect2212"/></g></svg>