<svg xmlns="http://www.w3.org/2000/svg" xmlns:svg="http://www.w3.org/2000/svg" xmlns:xlink="http://www.w3.org/1999/xlink" id="svg2" width="48" height="48" version="1.0"><defs id="defs3"><linearGradient id="linearGradient5702"><stop id="stop5704" offset="0" style="stop-color:#000;stop-opacity:1"/><stop id="stop5706" offset="1" style="stop-color:#000;stop-opacity:0"/></linearGradient><linearGradient id="linearGradient4726"><stop id="stop4728" offset="0" style="stop-color:#729fcf;stop-opacity:1"/><stop id="stop4730" offset="1" style="stop-color:#3465a4;stop-opacity:1"/></linearGradient><radialGradient id="radialGradient5708" cx="15.625" cy="29.768" r="13.839" fx="15.625" fy="29.768" gradientTransform="matrix(1,0,0,0.07096774,0,27.655299)" gradientUnits="userSpaceOnUse" xlink:href="#linearGradient5702"/><radialGradient id="radialGradient3696" cx="-20" cy="4.87" r="22" fx="-20" fy="4.87" gradientTransform="matrix(1.0470576e-8,1.8177248,-1.5450666,0,15.527819,40.359517)" gradientUnits="userSpaceOnUse" xlink:href="#linearGradient4726"/></defs><g id="layer1"><path id="path4731" d="m 29.464286,29.767857 a 13.839286,0.98214287 0 1 1 -27.6785719,0 13.839286,0.98214287 0 1 1 27.6785719,0 z" transform="matrix(1.5927335,0,0,2.1126475,-0.928756,-17.963909)" style="opacity:.3;color:#000;fill:url(#radialGradient5708);fill-opacity:1;fill-rule:nonzero;stroke:none;stroke-width:1.00000083;marker:none;visibility:visible;display:inline;overflow:visible;enable-background:accumulate"/><rect id="rect2914" width="39" height="39" x="4.5" y="4.5" rx="1" ry="1" style="fill:url(#radialGradient3696);fill-opacity:1;stroke:#204a87;stroke-width:1;stroke-linecap:round;stroke-linejoin:round;stroke-miterlimit:0;stroke-opacity:1;stroke-dasharray:none;stroke-dashoffset:0"/><rect id="rect3698" width="36.999" height="36.905" x="5.609" y="5.594" rx=".382" ry=".381" style="opacity:.23999999;fill:none;stroke:#fff;stroke-width:1.00123405;stroke-linecap:round;stroke-linejoin:round;stroke-miterlimit:0;stroke-opacity:1;stroke-dasharray:none;stroke-dashoffset:0"/><path id="path3700" d="m 35.5,13.5 a 3.5000001,3.5000003 0 0 1 -7,0 3.5000001,3.5000003 0 1 1 7,0 z" style="fill:#ebf0ff;fill-opacity:1;stroke:none"/><path id="path3702" d="m 26,38 12,0 0,-15 c 0,-7 -12,-7 -12,0 l 0,15 z" style="fill:#ebf0ff;fill-opacity:1;stroke:none"/><path id="path3704" d="m 18,33 9,0 0,-12 c 0,-6 -9,-6 -9,0 l 0,12 z" style="fill:#ebf0ff;fill-opacity:1;stroke:none"/><path id="path3706" d="m 12,28 7,0 0,-7.2 c 0,-6 -7,-6 -7,0 l 0,7.2 z" style="fill:#ebf0ff;fill-opacity:1;stroke:none"/><path id="path3708" d="m 35.019675,20.652481 a 2.9698665,2.846122 0 1 1 -5.939733,0 2.9698665,2.846122 0 1 1 5.939733,0 z" transform="matrix(0.84178874,0,0,0.87838827,-4.4791679,-4.6408971)" style="fill:#ebf0ff;fill-opacity:1;stroke:none"/><path id="path3710" d="m 35.019675,20.652481 a 2.9698665,2.846122 0 1 1 -5.939733,0 2.9698665,2.846122 0 1 1 5.939733,0 z" transform="matrix(0.67343099,0,0,0.70271062,-6.0833343,-0.51271779)" style="fill:#ebf0ff;fill-opacity:1;stroke:none"/></g></svg>