<svg xmlns="http://www.w3.org/2000/svg" xmlns:cc="http://web.resource.org/cc/" xmlns:svg="http://www.w3.org/2000/svg" xmlns:xlink="http://www.w3.org/1999/xlink" id="svg4376" width="48" height="48"><defs id="defs3"><linearGradient id="linearGradient3337"><stop style="stop-color:#000;stop-opacity:1" id="stop3339" offset="0"/><stop id="stop3345" offset=".5" style="stop-color:#000;stop-opacity:.51923078"/><stop style="stop-color:#000;stop-opacity:1" id="stop3341" offset="1"/></linearGradient><linearGradient id="linearGradient3290"><stop style="stop-color:#fffcde;stop-opacity:1" id="stop3292" offset="0"/><stop id="stop3294" offset=".645" style="stop-color:#f6e76a;stop-opacity:1"/><stop style="stop-color:#ffb738;stop-opacity:1" id="stop3296" offset="1"/></linearGradient><linearGradient id="linearGradient3068"><stop style="stop-color:#ccc;stop-opacity:1" id="stop3070" offset="0"/><stop id="stop3076" offset=".346" style="stop-color:#fff;stop-opacity:1"/><stop style="stop-color:#fff;stop-opacity:1" id="stop3078" offset=".725"/><stop style="stop-color:#cecece;stop-opacity:1" id="stop3072" offset="1"/></linearGradient><linearGradient id="linearGradient4565"><stop style="stop-color:#000;stop-opacity:1" id="stop4567" offset="0"/><stop style="stop-color:#000;stop-opacity:0" id="stop4569" offset="1"/></linearGradient><radialGradient id="radialGradient1360" cx="24.714" cy="38.571" r="19.714" fx="24.714" fy="38.571" gradientTransform="matrix(1.000000,0.000000,0.000000,0.333333,0.000000,25.71429)" gradientUnits="userSpaceOnUse" xlink:href="#linearGradient4565"/><radialGradient id="radialGradient1362" cx="29.288" cy="15.721" r="8.902" fx="29.158" fy="15.756" gradientUnits="userSpaceOnUse" xlink:href="#linearGradient3290"/><linearGradient id="linearGradient2132" x1="9.789" x2="38.391" y1="29.629" y2="29.629" gradientTransform="matrix(1.048897,0.000000,0.000000,1.000000,-1.267931,0.000000)" gradientUnits="userSpaceOnUse" xlink:href="#linearGradient3068"/><linearGradient id="linearGradient3343" x1="10.375" x2="37.938" y1="30.719" y2="30.719" gradientUnits="userSpaceOnUse" xlink:href="#linearGradient3337"/></defs><metadata id="metadata4"/><g id="layer1"><path style="opacity:.5316456;color:#000;fill:url(#radialGradient1360);fill-opacity:1;fill-rule:evenodd;stroke:none;stroke-width:.40487173;stroke-linecap:round;stroke-linejoin:round;marker:none;marker-start:none;marker-mid:none;marker-end:none;stroke-miterlimit:4;stroke-dasharray:none;stroke-dashoffset:0;stroke-opacity:1;visibility:visible;display:inline;overflow:visible" id="path4563" d="M 44.428570 38.571430 A 19.714285 6.5714288 0 1 1 5.0000000,38.571430 A 19.714285 6.5714288 0 1 1 44.428570 38.571430 z"/><path style="opacity:1;color:#000;fill:url(#radialGradient1362);fill-opacity:1;fill-rule:evenodd;stroke:#9c8c0a;stroke-width:.48004404;stroke-linecap:round;stroke-linejoin:round;marker:none;marker-start:none;marker-mid:none;marker-end:none;stroke-miterlimit:4;stroke-dasharray:none;stroke-dashoffset:0;stroke-opacity:1;visibility:visible;display:inline;overflow:visible" id="path4320" d="M 39.774755 19.008621 A 8.6620579 8.6620579 0 1 1 22.450640,19.008621 A 8.6620579 8.6620579 0 1 1 39.774755 19.008621 z" transform="matrix(2.083142,0.000000,0.000000,2.083142,-40.54715,-16.49224)"/><path id="path4322" d="M 39.774755 19.008621 A 8.6620579 8.6620579 0 1 1 22.450640,19.008621 A 8.6620579 8.6620579 0 1 1 39.774755 19.008621 z" transform="matrix(1.979782,0.000000,0.000000,1.979782,-37.33128,-14.52746)" style="opacity:.67721522;color:#000;fill:none;fill-opacity:1;fill-rule:evenodd;stroke:#fff;stroke-width:.50510627;stroke-linecap:round;stroke-linejoin:round;marker:none;marker-start:none;marker-mid:none;marker-end:none;stroke-miterlimit:4;stroke-dasharray:none;stroke-dashoffset:0;stroke-opacity:1;visibility:visible;display:inline;overflow:visible"/><path style="fill:none;fill-opacity:1;stroke:#555753;stroke-width:1;stroke-linecap:butt;stroke-miterlimit:4;stroke-dasharray:none;stroke-dashoffset:0;stroke-opacity:1" id="path1364" d="M -0.87500000,1.8750000 A 2.9375000,2.8750000 0 0 1 -6.3564497,3.3124999" transform="matrix(-0.965926,-0.258819,0.258819,-0.965926,24.53442,17.20131)"/><path id="path2094" d="M -0.87500000,1.8750000 A 2.9375000,2.8750000 0 0 1 -6.3564497,3.3124999" transform="matrix(-0.965926,-0.258819,0.258819,-0.965926,15.78442,17.20131)" style="fill:none;fill-opacity:1;stroke:#555753;stroke-width:1;stroke-linecap:butt;stroke-miterlimit:4;stroke-dasharray:none;stroke-dashoffset:0;stroke-opacity:1"/><path id="path2096" d="M 9.1875355,21.044769 C 7.6485541,28.612147 13.879571,38.212295 24.038687,38.212295 C 34.286185,38.212295 40.544215,29.781871 38.758727,21.107269 L 9.1875355,21.044769 z" style="opacity:1;color:#000;fill:url(#linearGradient2132);fill-opacity:1;fill-rule:nonzero;stroke:none;stroke-width:1.0000001;stroke-linecap:butt;stroke-linejoin:miter;marker:none;marker-start:none;marker-mid:none;marker-end:none;stroke-miterlimit:4;stroke-dasharray:none;stroke-dashoffset:0;stroke-opacity:1;visibility:visible;display:inline;overflow:visible"/><path style="opacity:1;color:#000;fill:none;fill-opacity:1;fill-rule:nonzero;stroke:#8f5902;stroke-width:.99999994;stroke-linecap:butt;stroke-linejoin:miter;marker:none;marker-start:none;marker-mid:none;marker-end:none;stroke-miterlimit:4;stroke-dasharray:none;stroke-dashoffset:0;stroke-opacity:1;visibility:visible;display:inline;overflow:visible" id="path2756" d="M 9.4409398,20.615864 C 7.6602852,29.43779 14.599952,38.703673 24.250001,38.703673 C 34.253546,38.703673 40.902217,29.12529 38.621563,20.553364 L 9.4409398,20.615864 z"/><path style="opacity:1;color:#000;fill:url(#linearGradient3343);fill-opacity:1;fill-rule:evenodd;stroke:none;stroke-width:1;stroke-linecap:butt;stroke-linejoin:miter;marker:none;marker-start:none;marker-mid:none;marker-end:none;stroke-miterlimit:10;stroke-dasharray:none;stroke-dashoffset:0;stroke-opacity:1;visibility:visible;display:inline;overflow:visible" id="path2462" d="M 10.375,27.875 C 11.23086,30.08164 12.138535,32.236465 13.8125,33.625 C 20.614421,32.921143 27.552502,32.83001 34.6875,33.625 C 36.241097,32.157764 37.383184,30.279018 37.9375,27.8125 C 28.842417,29.312007 19.63631,29.035121 10.375,27.875 z"/></g></svg>