<svg xmlns="http://www.w3.org/2000/svg" xmlns:cc="http://web.resource.org/cc/" xmlns:svg="http://www.w3.org/2000/svg" xmlns:xlink="http://www.w3.org/1999/xlink" id="svg2" width="48" height="48" version="1.0"><metadata id="metadata7"/><defs id="defs5"><linearGradient id="linearGradient3297"><stop style="stop-color:#77d916;stop-opacity:1" id="stop3299" offset="0"/><stop style="stop-color:#5eae12;stop-opacity:1" id="stop3301" offset="1"/></linearGradient><linearGradient id="linearGradient3289"><stop style="stop-color:#a9ea6a;stop-opacity:1" id="stop3291" offset="0"/><stop style="stop-color:#a9ea6a;stop-opacity:0" id="stop3293" offset="1"/></linearGradient><linearGradient id="linearGradient3281"><stop style="stop-color:#4e9a06;stop-opacity:1" id="stop3283" offset="0"/><stop style="stop-color:#3f7e04;stop-opacity:1" id="stop3285" offset="1"/></linearGradient><linearGradient id="linearGradient6839"><stop style="stop-color:#000;stop-opacity:.44444445" id="stop6841" offset="0"/><stop style="stop-color:#000;stop-opacity:0" id="stop6843" offset="1"/></linearGradient><linearGradient id="linearGradient5083"><stop style="stop-color:#fff;stop-opacity:.12820514" id="stop5085" offset="0"/><stop style="stop-color:#fff;stop-opacity:0" id="stop5087" offset="1"/></linearGradient><linearGradient id="linearGradient3306"><stop style="stop-color:#2e3436;stop-opacity:1" id="stop3308" offset="0"/><stop style="stop-color:#6a6c67;stop-opacity:1" id="stop3310" offset="1"/></linearGradient><linearGradient id="linearGradient3298"><stop style="stop-color:#8c9d24;stop-opacity:1" id="stop3300" offset="0"/><stop style="stop-color:#bed341;stop-opacity:1" id="stop3302" offset="1"/></linearGradient><radialGradient id="radialGradient6845" cx="14.98" cy="24.438" r="10.155" fx="14.98" fy="24.438" gradientUnits="userSpaceOnUse" xlink:href="#linearGradient6839"/><linearGradient id="linearGradient7738" x1="12.148" x2="9.954" y1="18.031" y2="4.031" gradientTransform="matrix(1.990582,0,0,1.956825,2.169514,0.111554)" gradientUnits="userSpaceOnUse" xlink:href="#linearGradient3306"/><linearGradient id="linearGradient7742" x1="6.773" x2="6.741" y1="11.25" y2="5.068" gradientTransform="matrix(1.999449,0,0,1.932483,2.134045,0.270066)" gradientUnits="userSpaceOnUse" xlink:href="#linearGradient5083"/><linearGradient id="linearGradient3287" x1="2.731" x2="13.05" y1="1.634" y2="14.487" gradientUnits="userSpaceOnUse" xlink:href="#linearGradient3281"/><linearGradient id="linearGradient3295" x1="3.371" x2="12.59" y1="1.315" y2="14.155" gradientUnits="userSpaceOnUse" xlink:href="#linearGradient3289"/><linearGradient id="linearGradient3303" x1="2.291" x2="12.331" y1="2.437" y2="14.125" gradientUnits="userSpaceOnUse" xlink:href="#linearGradient3297"/></defs><path style="opacity:1;fill:url(#radialGradient6845);fill-opacity:1;fill-rule:nonzero;stroke:none;stroke-width:1;stroke-linecap:butt;stroke-linejoin:round;stroke-miterlimit:4;stroke-dasharray:none;stroke-dashoffset:0;stroke-opacity:1" id="path5964" d="M 25.135029,24.437885 A 10.15484,10.15484 0 1 1 25.134977,24.405482" transform="matrix(2.051199,0,0,0.608807,-6.897747,25.47255)"/><path style="opacity:1;fill:url(#linearGradient3303);fill-opacity:1;fill-rule:nonzero;stroke:url(#linearGradient3287);stroke-width:.37600183;stroke-linecap:round;stroke-linejoin:round;stroke-miterlimit:4;stroke-dasharray:none;stroke-dashoffset:0;stroke-opacity:1" id="path2396" d="M 15.45903,7.8194256 A 7.6885095,7.7295151 0 1 1 15.458991,7.7947615" transform="matrix(2.666592,0,0,2.652552,3.27862,1.260023)"/><path id="path3283" d="M 15.45903,7.8194256 A 7.6885095,7.7295151 0 1 1 15.458991,7.7947615" transform="matrix(2.535942,0,0,2.522469,4.288207,2.275743)" style="opacity:1;fill:none;fill-opacity:1;fill-rule:nonzero;stroke:url(#linearGradient3295);stroke-width:.39538249;stroke-linecap:round;stroke-linejoin:round;stroke-miterlimit:4;stroke-dasharray:none;stroke-dashoffset:0;stroke-opacity:1"/><path id="path7736" d="M 21.080049,8 L 21.080049,14.543129 L 16.29021,9.8956732 L 12.06022,14.053922 L 16.787857,18.701379 L 10.131844,18.701379 L 10.131844,24.571849 L 16.850061,24.571849 L 12.06022,29.280455 L 16.29021,33.438705 L 21.080049,28.7301 L 21.080049,35.39553 L 27.051797,35.39553 L 27.051797,28.7301 L 31.77943,33.438705 L 36.009418,29.280455 L 31.219579,24.571849 L 38,24.571849 L 38,18.701379 L 31.281785,18.701379 L 36.009418,14.053922 L 31.77943,9.8956732 L 27.051797,14.543129 L 27.051797,8 L 21.080049,8 z M 23.257248,15.827294 C 23.505421,15.796251 23.809218,15.827294 24.065922,15.827294 C 27.345091,15.827294 29.964999,18.413075 29.975465,21.636614 C 29.975465,24.866732 27.351765,27.507084 24.065922,27.507084 C 20.780079,27.507084 18.094175,24.866732 18.094175,21.636614 C 18.094174,18.658849 20.328807,16.193583 23.257248,15.827294 z" style="opacity:1;fill:url(#linearGradient7738);fill-opacity:1;fill-rule:nonzero;stroke:none;stroke-width:1;stroke-linecap:butt;stroke-linejoin:round;stroke-miterlimit:4;stroke-dasharray:none;stroke-dashoffset:0;stroke-opacity:1"/><path id="path7740" d="M 21.128819,8.06039 L 21.128819,14.522131 L 16.317642,9.9324832 L 12.068812,14.03901 L 16.817504,18.628659 L 10.131844,18.628659 L 10.131844,22.010504 C 12.983457,21.92907 15.635553,21.59813 18.129644,21.044263 C 18.357342,18.321118 20.535092,16.132273 23.315717,15.790324 C 23.346875,15.786492 23.407977,15.792419 23.440683,15.790324 C 23.657296,15.781469 23.91849,15.790324 24.127992,15.790324 C 25.70283,15.790324 27.131406,16.403207 28.189376,17.360466 C 28.203204,17.372979 28.238154,17.347826 28.251859,17.360466 C 30.661586,16.090491 32.883787,14.549219 35,12.951988 L 31.87586,9.9324832 L 27.127167,14.522131 L 27.127167,8.06039 L 21.128819,8.06039 z" style="fill:url(#linearGradient7742);fill-opacity:1;fill-rule:evenodd;stroke:none;stroke-width:1px;stroke-linecap:butt;stroke-linejoin:miter;stroke-opacity:1"/></svg>