<svg xmlns="http://www.w3.org/2000/svg" xmlns:svg="http://www.w3.org/2000/svg" xmlns:xlink="http://www.w3.org/1999/xlink" id="svg2847" width="48" height="48" version="1.1"><defs id="defs2849"><linearGradient id="linearGradient4176"><stop style="stop-color:#fff;stop-opacity:1" id="stop4178" offset="0"/><stop style="stop-color:#fff;stop-opacity:0" id="stop4180" offset="1"/></linearGradient><radialGradient id="radialGradient4182" cx="21.817" cy="8.69" r="17" fx="21.817" fy="8.69" gradientTransform="matrix(0.28422559,0.24715271,-1.1764708,1.352941,25.02293,-10.149661)" gradientUnits="userSpaceOnUse" xlink:href="#linearGradient4176"/><radialGradient id="radialGradient4186" cx=".079" cy=".245" r="17" fx=".079" fy=".245" gradientTransform="matrix(0,0.11764706,-1.1176471,-2.2561851e-8,23.274286,-11.009344)" gradientUnits="userSpaceOnUse" xlink:href="#linearGradient4176"/><radialGradient id="radialGradient4190" cx="306.079" cy="-3.334" r="17" fx="306.079" fy="-3.334" gradientTransform="matrix(0,0.11764706,-1.1176471,-2.2561851e-8,23.274286,-11.009344)" gradientUnits="userSpaceOnUse" xlink:href="#linearGradient4176"/><linearGradient id="linearGradient3150"><stop style="stop-color:#2e3436;stop-opacity:1" id="stop3152" offset="0"/><stop style="stop-color:#2e3436;stop-opacity:0" id="stop3154" offset="1"/></linearGradient><radialGradient id="radialGradient4209" cx="10.834" cy="11.709" r="6.645" fx="10.834" fy="11.709" gradientTransform="matrix(-1.0954692,2.6934576e-8,0,-0.3017106,22.556507,13.669733)" gradientUnits="userSpaceOnUse" xlink:href="#linearGradient3150"/></defs><metadata id="metadata2852"/><g id="layer1" transform="translate(0,16)"><path style="opacity:.6;fill:url(#radialGradient4209);fill-opacity:1;stroke:none" id="path3140" d="m 18.435079,10.457643 c 0,0.841414 -3.44133,1.523515 -7.686425,1.523515 -4.2450945,0 -7.6864239,-0.682101 -7.6864239,-1.523515 0,-0.8414149 3.4413294,-1.523516 7.6864239,-1.523516 4.245095,0 7.686425,0.6821011 7.686425,1.523516 z" transform="matrix(2.884895,0,0,2.493965,-5.834213,2.1194109)"/><path style="fill:#555753;stroke:#2e3436;stroke-width:1px;stroke-linecap:butt;stroke-linejoin:round;stroke-opacity:1" id="path2859" d="m 41.5,-12.5 -35,0 0,9 3,-4 24,0 -27,30 0,6 35,0 0,-10 -3,5 -24,0 27,-30 0,-6 z"/><path style="opacity:.23999999;fill:url(#radialGradient4182);stroke:#fff;stroke-width:1px;stroke-linecap:butt;stroke-linejoin:round;stroke-opacity:1;fill-opacity:1" id="path4145" d="m 7.5,-11.5 0,4.125 1.4375,-0.96875 A 0.99885146,0.99885146 0 0 1 9.5,-8.5 l 24,0 a 0.99885146,0.99885146 0 0 1 0.75,1.65625 L 7.5,22.875 l 0,4.625 33,0 0,-4.5625 -1.28125,1.28125 A 0.99885146,0.99885146 0 0 1 38.5,24.5 l -24,0 A 0.99885146,0.99885146 0 0 1 13.75,22.84375 L 40.5,-6.875 l 0,-4.625 -33,0 z" xlink:href="#path2859"/><path id="path4184" d="m 7.5,-11.5 0,4.125 1.4375,-0.96875 A 0.99885146,0.99885146 0 0 1 9.5,-8.5 l 24,0 a 0.99885146,0.99885146 0 0 1 0.75,1.65625 L 7.5,22.875 l 0,4.625 33,0 0,-4.5625 -1.28125,1.28125 A 0.99885146,0.99885146 0 0 1 38.5,24.5 l -24,0 A 0.99885146,0.99885146 0 0 1 13.75,22.84375 L 40.5,-6.875 l 0,-4.625 -33,0 z" xlink:href="#path2859" style="opacity:.23999999;fill:url(#radialGradient4186);stroke:none;stroke-width:1px;stroke-linecap:butt;stroke-linejoin:round;stroke-opacity:1;fill-opacity:1"/><path style="opacity:.23999999;fill:url(#radialGradient4190);stroke:none;stroke-width:1px;stroke-linecap:butt;stroke-linejoin:round;stroke-opacity:1;fill-opacity:1" id="path4188" d="m 7.5,-11.5 0,4.125 1.4375,-0.96875 A 0.99885146,0.99885146 0 0 1 9.5,-8.5 l 24,0 a 0.99885146,0.99885146 0 0 1 0.75,1.65625 L 7.5,22.875 l 0,4.625 33,0 0,-4.5625 -1.28125,1.28125 A 0.99885146,0.99885146 0 0 1 38.5,24.5 l -24,0 A 0.99885146,0.99885146 0 0 1 13.75,22.84375 L 40.5,-6.875 l 0,-4.625 -33,0 z" xlink:href="#path2859"/></g></svg>