<svg xmlns="http://www.w3.org/2000/svg" xmlns:svg="http://www.w3.org/2000/svg" id="svg2" width="48" height="48" version="1.0"><metadata id="metadata24"/><g id="layer1"><rect style="fill:#f0f0f0;fill-opacity:1;stroke:none" id="rect3592" width="48" height="18" x="0" y="15" rx="2" ry="2"/><path style="fill:none;stroke:#778;stroke-width:3;stroke-linecap:round;stroke-linejoin:round;stroke-miterlimit:4;stroke-opacity:1;stroke-dasharray:none" id="path2834" d="m 1.5,28.5 2,0 c 1,0 2,-1 2,-2.25 l 0,-4.5 c 0,-1.25 1,-2.25 2,-2.25 l 2.5,0"/><path style="fill:none;stroke:#778;stroke-width:3;stroke-linecap:round;stroke-linejoin:round;stroke-miterlimit:4;stroke-opacity:1;stroke-dasharray:none" id="path2836" d="m 13.5,19.5 8.5,0"/><path style="fill:none;stroke:#778;stroke-width:3;stroke-linecap:round;stroke-linejoin:round;stroke-miterlimit:4;stroke-opacity:1;stroke-dasharray:none" id="path2838" d="m 13.5,28.5 8.5,0"/><path style="fill:none;stroke:#778;stroke-width:3;stroke-linecap:round;stroke-linejoin:round;stroke-miterlimit:4;stroke-opacity:1;stroke-dasharray:none" id="path2840" d="m 17.5,27 0,-6"/><path style="fill:none;stroke:#778;stroke-width:3;stroke-linecap:round;stroke-linejoin:round;stroke-miterlimit:4;stroke-opacity:1;stroke-dasharray:none" id="path2842" d="m 25.5,19.5 0,6.75 c 0,1.376947 0.876947,2.230789 3,2.25 l 6,0"/><path style="fill:none;stroke:#778;stroke-width:3;stroke-linecap:round;stroke-linejoin:round;stroke-miterlimit:4;stroke-opacity:1;stroke-dasharray:none" id="path2844" d="m 42.5,19.5 -3,0 c -1,0 -2,1 -2,2.25 l 0,4.5 c 0,1.25 1,2.25 2,2.25 l 7,0"/></g></svg>